<svg width="176" height="18" viewBox="0 0 176 18" fill="none" xmlns="http://www.w3.org/2000/svg">
<path d="M11.0831 14.9409H9.35507L4.18707 9.14892V14.9409H2.74707V3.51692H4.18707V9.05292L9.22707 3.51692H10.8591L5.89907 9.06892L11.0831 14.9409ZM17.4217 11.6929C17.0804 12.4503 16.7337 13.0849 16.3817 13.5969C16.0404 14.0983 15.635 14.4769 15.1657 14.7329C14.6964 14.9783 14.099 15.1009 13.3737 15.1009C13.075 15.1009 12.7924 15.0796 12.5257 15.0369C12.2697 14.9943 12.035 14.9356 11.8217 14.8609V13.4369C12.035 13.5329 12.2644 13.6129 12.5097 13.6769C12.755 13.7303 13.011 13.7569 13.2777 13.7569C13.6724 13.7569 14.0084 13.7036 14.2857 13.5969C14.5737 13.4796 14.8244 13.2929 15.0377 13.0369C15.2617 12.7809 15.4697 12.4396 15.6617 12.0129L11.2617 3.51692H12.8457L16.0297 9.80492C16.0724 9.87958 16.115 9.97025 16.1577 10.0769C16.2004 10.1729 16.243 10.2743 16.2857 10.3809C16.339 10.4876 16.3817 10.5889 16.4137 10.6849H16.4777C16.5097 10.6103 16.5417 10.5249 16.5737 10.4289C16.6164 10.3223 16.6537 10.2209 16.6857 10.1249C16.7284 10.0183 16.7657 9.92758 16.7977 9.85292L19.5497 3.51692H21.0697L17.4217 11.6929ZM22.6221 14.9409V3.51692H31.1981V14.9409H29.7741V4.78092H24.0621V14.9409H22.6221ZM34.3412 3.51692H35.6852V9.78892C35.6852 10.0556 35.6799 10.3489 35.6692 10.6689C35.6692 10.9783 35.6639 11.2876 35.6532 11.5969C35.6425 11.9063 35.6265 12.1836 35.6052 12.4289C35.5945 12.6636 35.5839 12.8449 35.5732 12.9729H35.6372L41.9252 3.51692H43.5252V14.9409H42.1812V8.73292C42.1812 8.44492 42.1865 8.13558 42.1972 7.80492C42.2079 7.46358 42.2185 7.13825 42.2292 6.82892C42.2505 6.50892 42.2665 6.22625 42.2772 5.98092C42.2879 5.73558 42.2985 5.55425 42.3092 5.43692H42.2452L35.9412 14.9409H34.3412V3.51692ZM50.2224 14.9409H48.7824V4.78092H45.2144V3.51692H53.7744V4.78092H50.2224V14.9409ZM55.4971 14.9409V3.51692H56.9371V8.34892H59.0811C60.1477 8.34892 60.9957 8.49292 61.6251 8.78092C62.2544 9.06892 62.7077 9.45825 62.9851 9.94892C63.2624 10.4396 63.4011 10.9889 63.4011 11.5969C63.4011 12.2689 63.2464 12.8556 62.9371 13.3569C62.6384 13.8583 62.1851 14.2476 61.5771 14.5249C60.9691 14.8023 60.1957 14.9409 59.2571 14.9409H55.4971ZM59.1131 13.7089C60.0411 13.7089 60.7397 13.5383 61.2091 13.1969C61.6784 12.8449 61.9131 12.3116 61.9131 11.5969C61.9131 11.1063 61.7957 10.7169 61.5611 10.4289C61.3371 10.1303 61.0011 9.91692 60.5531 9.78892C60.1157 9.66092 59.5664 9.59692 58.9051 9.59692H56.9371V13.7089H59.1131ZM78.7643 14.9409H77.3243V9.61292H71.4683V14.9409H70.0283V3.51692H71.4683V8.34892H77.3243V3.51692H78.7643V14.9409ZM89.0557 14.9409L87.6797 11.4049H83.1517L81.7917 14.9409H80.3357L84.7997 3.46892H86.0957L90.5437 14.9409H89.0557ZM85.9677 6.66892C85.9357 6.58358 85.8824 6.42892 85.8077 6.20492C85.733 5.98092 85.6584 5.75158 85.5837 5.51692C85.5197 5.27158 85.4664 5.08492 85.4237 4.95692C85.3704 5.17025 85.3117 5.38892 85.2477 5.61292C85.1944 5.82625 85.1357 6.02358 85.0717 6.20492C85.0184 6.38625 84.9704 6.54092 84.9277 6.66892L83.6317 10.1249H87.2477L85.9677 6.66892Z" fill="white"/>
<path fill-rule="evenodd" clip-rule="evenodd" d="M107.179 0.987973C105.422 0.803876 103.65 1.1656 102.109 2.02343C100.567 2.88126 99.3297 4.19308 98.5677 5.77858C97.8058 7.36408 97.5561 9.14543 97.8532 10.8778C98.1503 12.6101 98.9794 14.2084 100.227 15.453C101.474 16.6975 103.078 17.5273 104.819 17.8281C106.559 18.129 108.351 17.8862 109.947 17.1331C111.543 16.3801 112.866 15.1537 113.733 13.6226C114.6 12.0915 114.969 10.3308 114.79 8.58252C114.592 6.63921 113.727 4.82302 112.341 3.43975C110.955 2.05648 109.132 1.19062 107.179 0.987973ZM106.901 13.949C105.957 14.0751 104.996 13.9035 104.154 13.4583C103.312 13.0131 102.632 12.3167 102.208 11.4669C101.785 10.6172 101.64 9.65686 101.793 8.72087C101.947 7.78488 102.391 6.9203 103.065 6.24864C103.738 5.57699 104.605 5.13202 105.546 4.97628C106.486 4.82054 107.452 4.96185 108.308 5.38036C109.163 5.79887 109.866 6.47353 110.316 7.30953C110.766 8.14553 110.941 9.10084 110.818 10.0412C110.688 11.0303 110.234 11.9492 109.526 12.6556C108.818 13.3621 107.895 13.8166 106.901 13.949ZM119.363 1.32449C119.067 1.3252 118.774 1.39167 118.507 1.51906C118.239 1.64646 118.004 1.83158 117.817 2.06095C117.63 2.29032 117.498 2.55818 117.428 2.84502C117.359 3.13186 117.355 3.43048 117.416 3.71915C117.604 4.65433 118.482 5.29331 119.438 5.29331H124.99L116.351 16.6659C116.287 16.7498 116.248 16.8498 116.238 16.9546C116.228 17.0595 116.247 17.165 116.294 17.2594C116.341 17.3538 116.414 17.4333 116.503 17.489C116.593 17.5447 116.697 17.5744 116.803 17.5749H130.354C131.31 17.5749 132.189 16.936 132.376 16.0007C132.438 15.7121 132.433 15.4135 132.364 15.1267C132.295 14.8399 132.162 14.572 131.976 14.3426C131.789 14.1133 131.554 13.9281 131.286 13.8006C131.019 13.6731 130.726 13.6066 130.43 13.6057H123.666L132.298 2.242C132.363 2.15723 132.402 2.05625 132.412 1.95039C132.422 1.84454 132.403 1.73799 132.355 1.64271C132.308 1.54743 132.235 1.46718 132.144 1.41097C132.053 1.35477 131.948 1.32482 131.842 1.32449H119.363ZM173.514 1.37027C173.065 1.47639 172.666 1.73164 172.383 2.09382C172.1 2.45599 171.95 2.9034 171.957 3.36207V9.97003L161.193 1.4493C161.109 1.38265 161.007 1.34105 160.9 1.3293C160.793 1.31755 160.685 1.33612 160.588 1.38287C160.491 1.42962 160.409 1.50266 160.352 1.59358C160.295 1.6845 160.265 1.78961 160.265 1.89681V15.5408C160.257 15.9995 160.408 16.4469 160.691 16.8091C160.974 17.1713 161.373 17.4265 161.821 17.5326C162.113 17.5964 162.415 17.5943 162.705 17.5264C162.995 17.4586 163.267 17.3268 163.499 17.1407C163.732 16.9546 163.919 16.7191 164.048 16.4513C164.176 16.1836 164.243 15.8905 164.242 15.5938V8.92867L175.007 17.4496C175.091 17.5162 175.193 17.5577 175.3 17.5695C175.407 17.5812 175.515 17.5627 175.612 17.5159C175.709 17.4692 175.791 17.3962 175.848 17.3053C175.905 17.2144 175.935 17.1094 175.935 17.0022V3.30842C175.935 3.01176 175.868 2.71881 175.74 2.45117C175.611 2.18353 175.424 1.94803 175.191 1.76203C174.959 1.57602 174.688 1.44426 174.397 1.37646C174.107 1.30866 173.805 1.30654 173.514 1.37027ZM145.487 4.91343C150.04 4.91343 153.442 7.3068 153.442 9.44766C153.442 11.5885 150.04 13.9819 145.487 13.9819C140.934 13.9819 137.532 11.5885 137.532 9.44766C137.532 7.3068 140.934 4.91343 145.487 4.91343ZM145.487 0.944764C138.897 0.944764 133.555 4.75167 133.555 9.44766C133.555 14.1437 138.897 17.9506 145.487 17.9506C152.077 17.9506 157.419 14.1437 157.419 9.44766C157.419 4.75167 152.077 0.944764 145.487 0.944764Z" fill="#0069FF"/>
</svg>
