<svg width="141" height="31" viewBox="0 0 141 31" fill="none" xmlns="http://www.w3.org/2000/svg">
<path d="M20.4415 21.4392H18.7135L13.5455 15.6472V21.4392H12.1055V10.0152H13.5455V15.5512L18.5855 10.0152H20.2175L15.2575 15.5672L20.4415 21.4392ZM26.7801 18.1912C26.4388 18.9485 26.0921 19.5832 25.7401 20.0952C25.3988 20.5965 24.9934 20.9752 24.5241 21.2312C24.0548 21.4765 23.4574 21.5992 22.7321 21.5992C22.4334 21.5992 22.1508 21.5779 21.8841 21.5352C21.6281 21.4925 21.3934 21.4339 21.1801 21.3592V19.9352C21.3934 20.0312 21.6228 20.1112 21.8681 20.1752C22.1134 20.2285 22.3694 20.2552 22.6361 20.2552C23.0308 20.2552 23.3668 20.2019 23.6441 20.0952C23.9321 19.9779 24.1828 19.7912 24.3961 19.5352C24.6201 19.2792 24.8281 18.9379 25.0201 18.5112L20.6201 10.0152H22.2041L25.3881 16.3032C25.4308 16.3779 25.4734 16.4685 25.5161 16.5752C25.5588 16.6712 25.6014 16.7725 25.6441 16.8792C25.6974 16.9859 25.7401 17.0872 25.7721 17.1832H25.8361C25.8681 17.1085 25.9001 17.0232 25.9321 16.9272C25.9748 16.8205 26.0121 16.7192 26.0441 16.6232C26.0868 16.5165 26.1241 16.4259 26.1561 16.3512L28.9081 10.0152H30.4281L26.7801 18.1912ZM31.9805 21.4392V10.0152H40.5565V21.4392H39.1325V11.2792H33.4205V21.4392H31.9805ZM43.6996 10.0152H45.0436V16.2872C45.0436 16.5539 45.0383 16.8472 45.0276 17.1672C45.0276 17.4765 45.0223 17.7859 45.0116 18.0952C45.0009 18.4045 44.9849 18.6819 44.9636 18.9272C44.9529 19.1619 44.9423 19.3432 44.9316 19.4712H44.9956L51.2836 10.0152H52.8836V21.4392H51.5396V15.2312C51.5396 14.9432 51.5449 14.6339 51.5556 14.3032C51.5663 13.9619 51.5769 13.6365 51.5876 13.3272C51.6089 13.0072 51.6249 12.7245 51.6356 12.4792C51.6463 12.2339 51.6569 12.0525 51.6676 11.9352H51.6036L45.2996 21.4392H43.6996V10.0152ZM59.5808 21.4392H58.1408V11.2792H54.5728V10.0152H63.1328V11.2792H59.5808V21.4392ZM64.8555 21.4392V10.0152H66.2955V14.8472H68.4395C69.5061 14.8472 70.3541 14.9912 70.9835 15.2792C71.6128 15.5672 72.0661 15.9565 72.3435 16.4472C72.6208 16.9379 72.7595 17.4872 72.7595 18.0952C72.7595 18.7672 72.6048 19.3539 72.2955 19.8552C71.9968 20.3565 71.5435 20.7459 70.9355 21.0232C70.3275 21.3005 69.5541 21.4392 68.6155 21.4392H64.8555ZM68.4715 20.2072C69.3995 20.2072 70.0981 20.0365 70.5675 19.6952C71.0368 19.3432 71.2715 18.8099 71.2715 18.0952C71.2715 17.6045 71.1541 17.2152 70.9195 16.9272C70.6955 16.6285 70.3595 16.4152 69.9115 16.2872C69.4741 16.1592 68.9248 16.0952 68.2635 16.0952H66.2955V20.2072H68.4715ZM88.1227 21.4392H86.6827V16.1112H80.8267V21.4392H79.3867V10.0152H80.8267V14.8472H86.6827V10.0152H88.1227V21.4392ZM98.4141 21.4392L97.0381 17.9032H92.5101L91.1501 21.4392H89.6941L94.1581 9.96721H95.4541L99.9021 21.4392H98.4141ZM95.3261 13.1672C95.2941 13.0819 95.2408 12.9272 95.1661 12.7032C95.0914 12.4792 95.0168 12.2499 94.9421 12.0152C94.8781 11.7699 94.8248 11.5832 94.7821 11.4552C94.7288 11.6685 94.6701 11.8872 94.6061 12.1112C94.5528 12.3245 94.4941 12.5219 94.4301 12.7032C94.3768 12.8845 94.3288 13.0392 94.2861 13.1672L92.9901 16.6232H96.6061L95.3261 13.1672Z" fill="white"/>
<rect x="109.734" y="0.204834" width="30.4685" height="30.4685" rx="5" fill="url(#paint0_linear_424_2289)"/>
<path d="M137.952 17.9539C137.952 18.9011 137.614 19.6881 136.924 20.3151C136.235 20.9421 135.423 21.2623 134.423 21.2623H129.407V9.69629H134.058C135.018 9.69629 135.829 10.0165 136.491 10.6168C137.168 11.2304 137.492 11.9908 137.492 12.8979C137.492 13.9118 137.086 14.6855 136.302 15.2592C137.33 15.7928 137.952 16.7533 137.952 17.9539ZM131.34 11.4839V14.5255H134.071C134.923 14.5255 135.572 13.8584 135.572 13.0047C135.572 12.1509 134.923 11.4839 134.071 11.4839H131.34ZM134.436 19.4747C135.329 19.4747 136.032 18.7676 136.032 17.8605C136.032 16.9534 135.329 16.2464 134.436 16.2464H131.34V19.488H134.436V19.4747Z" fill="white"/>
<path d="M115.124 21.1902L111.984 9.61674H114.044L116.456 18.5058L119.041 9.61597L120.961 9.61674L123.555 18.553L125.978 9.61892L128.037 9.61597L124.897 21.1882L122.51 21.1857L120.002 12.5428L117.492 21.188L115.124 21.1902Z" fill="white"/>
<defs>
<linearGradient id="paint0_linear_424_2289" x1="109.734" y1="30.6733" x2="140.203" y2="0.204834" gradientUnits="userSpaceOnUse">
<stop stop-color="#B52181"/>
<stop offset="1" stop-color="#50327C"/>
</linearGradient>
</defs>
</svg>
